# xmcd
#
# Track frame offsets: 
#        150
#        17610
#        34332
#        50315
#        71382
#        89512
#        108545
#        124110
#        141420
#        160490
#        180012
#        198391
#
# Disc length: 2926 seconds
#
# Revision: 1
# Processed by: cddbd v1.5.2PL0 Copyright (c) Steve Scherf et al.
# Submitted via: ExactAudioCopy v1.0b1
#
DISCID=a10b6c0c
DTITLE=Darryl Worley - Darryl Worley
DYEAR=2004
DGENRE=Country
TTITLE0=Awful Beautiful Life
TTITLE1=If I Could Tell The Truth
TTITLE2=I Live Her, She Hates Me
TTITLE3=If Something Should Happen
TTITLE4=Work And Worry
TTITLE5=If It Hadn't Been For Love
TTITLE6=Was It Good For You
TTITLE7=Find Me
TTITLE8=Wake Up America
TTITLE9=What Makes A Man Do That
TTITLE10=Better Than I Deserve
TTITLE11=Whistle Dixie
EXTD=
EXTT0=
EXTT1=
EXTT2=
EXTT3=
EXTT4=
EXTT5=
EXTT6=
EXTT7=
EXTT8=
EXTT9=
EXTT10=
EXTT11=
PLAYORDER=
